<?xml version="1.0" encoding="utf-8"?>
<!-- Generator: Adobe Illustrator 26.2.1, SVG Export Plug-In . SVG Version: 6.00 Build 0)  -->
<svg version="1.1" id="visual" xmlns="http://www.w3.org/2000/svg" xmlns:xlink="http://www.w3.org/1999/xlink" x="0px" y="0px"
	 viewBox="0 0 900 600" style="enable-background:new 0 0 900 600;" xml:space="preserve">
<style type="text/css">
	.st0{fill:#F68DA1;}
	.st1{fill:#42C0C3;}
</style>
<rect class="st0" width="900" height="600"/>
<path class="st1" d="M330,0l6.7,20c6.6,20,20,60,6.3,100s-54.3,80-83.3,120s-46.4,80-30.5,120c15.8,40,64.8,80,76.5,120
	c11.6,40-14,80-26.9,100L266,600H0v-20c0-20,0-60,0-100s0-80,0-120s0-80,0-120s0-80,0-120S0,40,0,20V0H330z"/>
</svg>
